<?xml version="1.0" standalone="no"?>
<!DOCTYPE svg PUBLIC "-//W3C//DTD SVG 20010904//EN"
 "http://www.w3.org/TR/2001/REC-SVG-20010904/DTD/svg10.dtd">
<svg version="1.0" xmlns="http://www.w3.org/2000/svg"
 width="144.000000pt" height="33.000000pt" viewBox="0 0 144.000000 33.000000"
 preserveAspectRatio="xMidYMid meet">

<g transform="translate(0.000000,33.000000) scale(0.100000,-0.100000)"
fill="#000000" stroke="none">
<path d="M204 223 l-22 -22 22 -20 22 -21 22 23 c26 27 28 37 7 37 -7 0 -18 6
-22 13 -6 9 -13 7 -29 -10z"/>
<path d="M92 180 c-15 -20 -27 -27 -39 -23 -10 4 -14 2 -9 -5 3 -6 2 -13 -4
-17 -5 -3 6 -20 25 -37 39 -34 43 -44 18 -51 -10 -3 -5 -4 12 -4 21 1 42 14
70 43 l40 40 -43 42 c-23 23 -44 42 -45 42 -2 0 -13 -13 -25 -30z"/>
<path d="M360 185 c0 -8 5 -15 10 -15 6 0 10 -25 10 -55 0 -30 -4 -55 -10 -55
-5 0 -10 -4 -10 -10 0 -5 16 -10 35 -10 19 0 35 5 35 10 0 6 -4 10 -10 10 -6
0 -10 27 -10 61 0 37 4 58 10 54 6 -3 10 1 10 9 0 12 -10 16 -35 16 -24 0 -35
-5 -35 -15z"/>
<path d="M470 120 c0 -64 3 -80 15 -80 11 0 15 13 16 58 l1 57 15 -57 c13 -50
18 -58 39 -58 19 0 25 8 34 43 23 90 30 95 27 24 -2 -58 0 -67 16 -67 15 0 17
10 17 80 l0 80 -28 0 c-27 0 -30 -4 -42 -57 -19 -91 -25 -93 -45 -14 -15 63
-20 71 -41 71 -23 0 -24 -2 -24 -80z"/>
<path d="M699 133 c-12 -38 -24 -74 -27 -80 -2 -7 3 -13 11 -13 9 0 19 9 22
20 9 28 71 28 80 0 3 -11 13 -20 22 -20 8 0 13 6 11 13 -3 6 -15 42 -27 80
-19 57 -26 67 -46 67 -20 0 -27 -10 -46 -67z m61 8 c8 -28 7 -31 -15 -31 -22
0 -23 2 -12 35 12 40 14 40 27 -4z"/>
<path d="M863 185 c-48 -34 -37 -123 19 -146 26 -11 35 -10 59 4 16 9 29 12
29 7 0 -6 6 -10 14 -10 10 0 13 11 12 38 -3 34 -6 37 -34 40 -18 2 -32 -1 -32
-7 0 -6 7 -11 15 -11 24 0 17 -29 -9 -36 -50 -12 -91 39 -66 85 14 27 74 29
89 4 7 -13 13 -15 20 -8 8 8 6 17 -5 33 -18 26 -78 30 -111 7z"/>
<path d="M1026 185 c4 -8 10 -15 15 -15 5 0 9 -25 9 -55 0 -42 -3 -55 -15 -55
-8 0 -15 -4 -15 -10 0 -5 18 -10 40 -10 22 0 40 5 40 10 0 6 -4 10 -10 10 -5
0 -10 24 -10 54 0 30 5 58 10 61 22 13 8 25 -30 25 -31 0 -38 -3 -34 -15z"/>
<path d="M1138 120 c3 -61 7 -80 18 -80 9 0 14 11 14 35 0 33 2 35 35 35 19 0
35 4 35 9 0 11 -25 21 -52 21 -34 0 -18 34 17 36 48 2 55 3 55 14 0 6 -28 10
-62 10 l-63 0 3 -80z"/>
<path d="M1280 188 c0 -7 12 -31 25 -53 14 -22 25 -52 25 -67 0 -18 5 -28 15
-28 10 0 15 10 15 33 0 17 11 52 25 76 29 51 29 51 10 51 -9 0 -23 -16 -32
-35 -9 -19 -19 -35 -23 -35 -3 0 -12 16 -19 35 -12 33 -41 49 -41 23z"/>
<path d="M212 93 c-6 -2 -10 -9 -6 -14 3 -5 -2 -12 -11 -15 -14 -6 -13 -10 6
-30 l23 -24 23 22 c23 21 23 21 3 35 -11 8 -18 19 -15 24 7 10 -2 11 -23 2z"/>
</g>
</svg>
